# xmcd
#
# Track frame offsets:
#        150
#        22579
#        43147
#        61994
#        76159
#        100047
#        118617
#        134969
#        155647
#        176239
#        185729
#        205349
#
# Disc length: 3019 seconds
#
# Revision: 0
# Processed by: cddbd v1.5.1PL0 Copyright (c) Steve Scherf et al.
# Submitted via: ExactAudioCopy v0.95a3
#
DISCID=a70bc90c
DTITLE=GOOFY'S HOLIDAY - Now And Then, Here And There
DYEAR=2004
DGENRE=
TTITLE0=Trust My Way
TTITLE1=I Believe It
TTITLE2=Where Is My Dream?
TTITLE3=Your Choice Way Is...
TTITLE4=Go Ahead
TTITLE5=Painting On The Wall
TTITLE6=Sing
TTITLE7=Under The Frail Moon
TTITLE8=One Way
TTITLE9=Daily Things
TTITLE10=Sorrow
TTITLE11=I Stand Alone
EXTD=
EXTT0=
EXTT1=
EXTT2=
EXTT3=
EXTT4=
EXTT5=
EXTT6=
EXTT7=
EXTT8=
EXTT9=
EXTT10=
EXTT11=
PLAYORDER=
